<svg width="28" height="28" viewBox="0 0 28 28" fill="none" xmlns="http://www.w3.org/2000/svg">
<g filter="url(#filter0_b_2022_504)">
<circle cx="14" cy="14" r="13.65" transform="matrix(1 0 0 -1 0 28)" stroke="#DFDFDF" stroke-width="0.7"/>
</g>
<path d="M13.4246 19.2983C13.4888 19.3916 13.5747 19.4678 13.675 19.5205C13.7752 19.5732 13.8868 19.6007 14 19.6007C14.1132 19.6007 14.2248 19.5732 14.325 19.5205C14.4253 19.4678 14.5112 19.3916 14.5754 19.2983L20.8754 10.1983C20.9483 10.0933 20.9911 9.97041 20.999 9.84285C21.007 9.71529 20.9799 9.58799 20.9205 9.47478C20.8612 9.36157 20.772 9.26678 20.6626 9.20071C20.5532 9.13463 20.4278 9.09981 20.3 9.10001H7.7C7.57249 9.10053 7.44754 9.13581 7.33857 9.20204C7.22961 9.26827 7.14077 9.36295 7.0816 9.4759C7.02242 9.58885 6.99516 9.71579 7.00273 9.84308C7.01031 9.97036 7.05244 10.0932 7.1246 10.1983L13.4246 19.2983Z" fill="white"/>
<defs>
<filter id="filter0_b_2022_504" x="-14" y="-14" width="56" height="56" filterUnits="userSpaceOnUse" color-interpolation-filters="sRGB">
<feFlood flood-opacity="0" result="BackgroundImageFix"/>
<feGaussianBlur in="BackgroundImageFix" stdDeviation="7"/>
<feComposite in2="SourceAlpha" operator="in" result="effect1_backgroundBlur_2022_504"/>
<feBlend mode="normal" in="SourceGraphic" in2="effect1_backgroundBlur_2022_504" result="shape"/>
</filter>
</defs>
</svg>
