<svg width="48" height="48" viewBox="0 0 48 48" fill="none" xmlns="http://www.w3.org/2000/svg">
<circle cx="24" cy="24" r="23.5" fill="#365486"/>
<circle cx="24" cy="24" r="23.5" fill="url(#paint0_linear_2022_440)" fill-opacity="0.2"/>
<circle cx="24" cy="24" r="23.5" stroke="url(#paint1_linear_2022_440)"/>
<g filter="url(#filter0_d_2022_440)">
<path d="M24.52 12.1921C24.3751 12.0681 24.1907 12 24 12C23.8093 12 23.6249 12.0681 23.48 12.1921L12 22.0321V33.6001C12 34.2366 12.2529 34.847 12.7029 35.2971C13.153 35.7472 13.7635 36.0001 14.4 36.0001H20.8C21.0122 36.0001 21.2157 35.9158 21.3657 35.7657C21.5157 35.6157 21.6 35.4122 21.6 35.2001V30.4001C21.6 29.7635 21.8529 29.1531 22.3029 28.703C22.753 28.2529 23.3635 28.0001 24 28.0001C24.6365 28.0001 25.247 28.2529 25.6971 28.703C26.1471 29.1531 26.4 29.7635 26.4 30.4001V35.2001C26.4 35.4122 26.4843 35.6157 26.6343 35.7657C26.7843 35.9158 26.9878 36.0001 27.2 36.0001H33.6C34.2365 36.0001 34.847 35.7472 35.2971 35.2971C35.7471 34.847 36 34.2366 36 33.6001V22.0321L24.52 12.1921Z" fill="white"/>
</g>
<defs>
<filter id="filter0_d_2022_440" x="4" y="6" width="40" height="40.0001" filterUnits="userSpaceOnUse" color-interpolation-filters="sRGB">
<feFlood flood-opacity="0" result="BackgroundImageFix"/>
<feColorMatrix in="SourceAlpha" type="matrix" values="0 0 0 0 0 0 0 0 0 0 0 0 0 0 0 0 0 0 127 0" result="hardAlpha"/>
<feOffset dy="2"/>
<feGaussianBlur stdDeviation="4"/>
<feComposite in2="hardAlpha" operator="out"/>
<feColorMatrix type="matrix" values="0 0 0 0 0 0 0 0 0 0 0 0 0 0 0 0 0 0 0.25 0"/>
<feBlend mode="normal" in2="BackgroundImageFix" result="effect1_dropShadow_2022_440"/>
<feBlend mode="normal" in="SourceGraphic" in2="effect1_dropShadow_2022_440" result="shape"/>
</filter>
<linearGradient id="paint0_linear_2022_440" x1="6" y1="3" x2="43.8" y2="48" gradientUnits="userSpaceOnUse">
<stop stop-color="#DCF2F1"/>
<stop offset="0.831667" stop-color="#0F1035"/>
</linearGradient>
<linearGradient id="paint1_linear_2022_440" x1="1.61022" y1="1.62581" x2="46.7444" y2="46.404" gradientUnits="userSpaceOnUse">
<stop stop-color="#A3A3A3" stop-opacity="0.79"/>
<stop offset="0.625" stop-color="#959595" stop-opacity="0.32"/>
<stop offset="1" stop-color="#484848" stop-opacity="0.21"/>
</linearGradient>
</defs>
</svg>
