<svg width="40" height="40" viewBox="0 0 40 40" fill="none" xmlns="http://www.w3.org/2000/svg">
<g filter="url(#filter0_b_2022_445)">
<circle cx="20" cy="20" r="20" fill="#365486"/>
<circle cx="20" cy="20" r="20" fill="url(#paint0_linear_2022_445)" fill-opacity="0.2"/>
<circle cx="20" cy="20" r="19.5" stroke="url(#paint1_linear_2022_445)"/>
</g>
<path d="M19.178 12.431C19.2697 12.2978 19.3925 12.1888 19.5357 12.1136C19.6789 12.0383 19.8382 11.999 20 11.999C20.1618 11.999 20.3211 12.0383 20.4643 12.1136C20.6075 12.1888 20.7303 12.2978 20.822 12.431L29.822 25.431C29.9262 25.5809 29.9873 25.7566 29.9986 25.9388C30.01 26.121 29.9712 26.3029 29.8865 26.4646C29.8018 26.6263 29.6743 26.7618 29.518 26.8561C29.3617 26.9505 29.1826 27.0003 29 27H11C10.8178 26.9992 10.6393 26.9489 10.4837 26.8542C10.328 26.7596 10.2011 26.6244 10.1166 26.463C10.032 26.3017 9.99308 26.1203 10.0039 25.9385C10.0147 25.7566 10.0749 25.5812 10.178 25.431L19.178 12.431Z" fill="white"/>
<defs>
<filter id="filter0_b_2022_445" x="-20" y="-20" width="80" height="80" filterUnits="userSpaceOnUse" color-interpolation-filters="sRGB">
<feFlood flood-opacity="0" result="BackgroundImageFix"/>
<feGaussianBlur in="BackgroundImageFix" stdDeviation="10"/>
<feComposite in2="SourceAlpha" operator="in" result="effect1_backgroundBlur_2022_445"/>
<feBlend mode="normal" in="SourceGraphic" in2="effect1_backgroundBlur_2022_445" result="shape"/>
</filter>
<linearGradient id="paint0_linear_2022_445" x1="5" y1="2.5" x2="36.5" y2="40" gradientUnits="userSpaceOnUse">
<stop stop-color="#DCF2F1"/>
<stop offset="0.831667" stop-color="#0F1035"/>
</linearGradient>
<linearGradient id="paint1_linear_2022_445" x1="1.34185" y1="1.35484" x2="38.9536" y2="38.67" gradientUnits="userSpaceOnUse">
<stop stop-color="#A3A3A3" stop-opacity="0.79"/>
<stop offset="0.625" stop-color="#959595" stop-opacity="0.32"/>
<stop offset="1" stop-color="#484848" stop-opacity="0.21"/>
</linearGradient>
</defs>
</svg>
