<svg width="40" height="40" viewBox="0 0 40 40" fill="none" xmlns="http://www.w3.org/2000/svg">
<g filter="url(#filter0_b_2022_449)">
<circle cx="20" cy="20" r="20" fill="#365486" fill-opacity="0.3"/>
<circle cx="20" cy="20" r="20" fill="url(#paint0_linear_2022_449)" fill-opacity="0.3"/>
<circle cx="20" cy="20" r="19.5" stroke="url(#paint1_linear_2022_449)" stroke-opacity="0.3"/>
</g>
<path d="M19.178 27.569C19.2697 27.7022 19.3925 27.8112 19.5357 27.8864C19.6789 27.9617 19.8382 28.001 20 28.001C20.1618 28.001 20.3211 27.9617 20.4643 27.8864C20.6075 27.8112 20.7303 27.7022 20.822 27.569L29.822 14.569C29.9262 14.4191 29.9873 14.2434 29.9986 14.0612C30.01 13.879 29.9712 13.6971 29.8865 13.5354C29.8018 13.3737 29.6743 13.2382 29.518 13.1439C29.3617 13.0495 29.1826 12.9997 29 13H11C10.8178 13.0008 10.6393 13.0511 10.4837 13.1458C10.328 13.2404 10.2011 13.3756 10.1166 13.537C10.032 13.6983 9.99308 13.8797 10.0039 14.0615C10.0147 14.2434 10.0749 14.4188 10.178 14.569L19.178 27.569Z" fill="white"/>
<defs>
<filter id="filter0_b_2022_449" x="-20" y="-20" width="80" height="80" filterUnits="userSpaceOnUse" color-interpolation-filters="sRGB">
<feFlood flood-opacity="0" result="BackgroundImageFix"/>
<feGaussianBlur in="BackgroundImageFix" stdDeviation="10"/>
<feComposite in2="SourceAlpha" operator="in" result="effect1_backgroundBlur_2022_449"/>
<feBlend mode="normal" in="SourceGraphic" in2="effect1_backgroundBlur_2022_449" result="shape"/>
</filter>
<linearGradient id="paint0_linear_2022_449" x1="5" y1="2.5" x2="36.5" y2="40" gradientUnits="userSpaceOnUse">
<stop stop-color="#DCF2F1"/>
<stop offset="0.831667" stop-color="#0F1035"/>
</linearGradient>
<linearGradient id="paint1_linear_2022_449" x1="1.34185" y1="1.35484" x2="38.9536" y2="38.67" gradientUnits="userSpaceOnUse">
<stop stop-color="#A3A3A3" stop-opacity="0.79"/>
<stop offset="0.625" stop-color="#959595" stop-opacity="0.32"/>
<stop offset="1" stop-color="#484848" stop-opacity="0.21"/>
</linearGradient>
</defs>
</svg>
