<svg width="24" height="24" viewBox="0 0 24 24" fill="none" xmlns="http://www.w3.org/2000/svg">
<path d="M14 4.99999C14 5.52999 13.794 6.01199 13.457 6.36999L16.081 9.64999C16.1167 9.69475 16.1666 9.72593 16.2225 9.7383C16.2783 9.75068 16.3368 9.74351 16.388 9.71799L19.038 8.39199C18.9807 8.10187 18.9884 7.80267 19.0604 7.51585C19.1325 7.22904 19.2671 6.96172 19.4546 6.73308C19.6422 6.50443 19.878 6.32013 20.1452 6.19338C20.4124 6.06664 20.7043 6.0006 21 5.99999C21.4917 6.00009 21.9661 6.18131 22.3326 6.50902C22.6992 6.83674 22.9321 7.28799 22.9871 7.77659C23.042 8.26519 22.915 8.75691 22.6304 9.15782C22.3457 9.55873 21.9234 9.84074 21.444 9.94999L19.64 19.573C19.5647 19.9741 19.3515 20.3362 19.0375 20.5968C18.7234 20.8574 18.3281 21 17.92 21H6.08C5.67189 21 5.27662 20.8574 4.96254 20.5968C4.64846 20.3362 4.43532 19.9741 4.36 19.573L2.556 9.94999C2.17261 9.86258 1.82349 9.66409 1.5523 9.37934C1.28111 9.09459 1.09988 8.73621 1.03126 8.34902C0.962649 7.96182 1.0097 7.56299 1.16652 7.20239C1.32335 6.84179 1.583 6.53542 1.91301 6.32159C2.24301 6.10775 2.62873 5.99595 3.02194 6.00015C3.41514 6.00435 3.79839 6.12436 4.12375 6.3452C4.44912 6.56603 4.70216 6.87787 4.85125 7.24174C5.00034 7.60561 5.03886 8.00535 4.962 8.39099L7.612 9.71699C7.66322 9.74251 7.72165 9.74968 7.77753 9.7373C7.8334 9.72493 7.88334 9.69375 7.919 9.64899L10.543 6.36899C10.3194 6.13125 10.1574 5.84241 10.0712 5.52767C9.98488 5.21293 9.97693 4.88187 10.048 4.56335C10.1191 4.24483 10.267 3.94855 10.4789 3.70034C10.6908 3.45214 10.9602 3.25956 11.2636 3.1394C11.567 3.01924 11.8953 2.97516 12.2196 3.011C12.544 3.04684 12.8547 3.16151 13.1246 3.34501C13.3944 3.52851 13.6153 3.77526 13.7679 4.06373C13.9205 4.35221 14.0002 4.67364 14 4.99999ZM12 17C12.5304 17 13.0391 16.7893 13.4142 16.4142C13.7893 16.0391 14 15.5304 14 15C14 14.4696 13.7893 13.9609 13.4142 13.5858C13.0391 13.2107 12.5304 13 12 13C11.4696 13 10.9609 13.2107 10.5858 13.5858C10.2107 13.9609 10 14.4696 10 15C10 15.5304 10.2107 16.0391 10.5858 16.4142C10.9609 16.7893 11.4696 17 12 17Z" fill="#FFE920"/>
</svg>
