<svg width="32" height="31" viewBox="0 0 32 31" fill="none" xmlns="http://www.w3.org/2000/svg">
<g filter="url(#filter0_d_2122_25)">
<path d="M16.9743 7.36101L23.4498 18.5765C23.5485 18.7475 23.6005 18.9415 23.6005 19.139C23.6005 19.3365 23.5485 19.5305 23.4498 19.7015C23.351 19.8725 23.209 20.0145 23.038 20.1133C22.867 20.212 22.673 20.264 22.4755 20.264H9.52451C9.32703 20.264 9.13304 20.212 8.96202 20.1133C8.791 20.0145 8.64899 19.8725 8.55025 19.7015C8.45151 19.5305 8.39953 19.3365 8.39954 19.139C8.39954 18.9415 8.45152 18.7475 8.55026 18.5765L15.0258 7.36101C15.4585 6.61101 16.5408 6.61101 16.9743 7.36101ZM16 16.25C15.8011 16.25 15.6103 16.329 15.4697 16.4697C15.329 16.6103 15.25 16.8011 15.25 17C15.25 17.1989 15.329 17.3897 15.4697 17.5303C15.6103 17.671 15.8011 17.75 16 17.75C16.1989 17.75 16.3897 17.671 16.5303 17.5303C16.671 17.3897 16.75 17.1989 16.75 17C16.75 16.8011 16.671 16.6103 16.5303 16.4697C16.3897 16.329 16.1989 16.25 16 16.25ZM16 11C15.8163 11 15.639 11.0675 15.5017 11.1895C15.3645 11.3116 15.2768 11.4798 15.2553 11.6623L15.25 11.75V14.75C15.2502 14.9412 15.3234 15.125 15.4546 15.264C15.5859 15.403 15.7652 15.4867 15.9561 15.4979C16.1469 15.5091 16.3348 15.447 16.4814 15.3243C16.628 15.2016 16.7222 15.0276 16.7448 14.8378L16.75 14.75V11.75C16.75 11.5511 16.671 11.3603 16.5303 11.2197C16.3897 11.079 16.1989 11 16 11Z" fill="#E8D953"/>
</g>
<defs>
<filter id="filter0_d_2122_25" x="0.399536" y="0.798508" width="31.2009" height="29.4655" filterUnits="userSpaceOnUse" color-interpolation-filters="sRGB">
<feFlood flood-opacity="0" result="BackgroundImageFix"/>
<feColorMatrix in="SourceAlpha" type="matrix" values="0 0 0 0 0 0 0 0 0 0 0 0 0 0 0 0 0 0 127 0" result="hardAlpha"/>
<feOffset dy="2"/>
<feGaussianBlur stdDeviation="4"/>
<feComposite in2="hardAlpha" operator="out"/>
<feColorMatrix type="matrix" values="0 0 0 0 0 0 0 0 0 0 0 0 0 0 0 0 0 0 0.25 0"/>
<feBlend mode="normal" in2="BackgroundImageFix" result="effect1_dropShadow_2122_25"/>
<feBlend mode="normal" in="SourceGraphic" in2="effect1_dropShadow_2122_25" result="shape"/>
</filter>
</defs>
</svg>
