<svg width="32" height="34" viewBox="0 0 32 34" fill="none" xmlns="http://www.w3.org/2000/svg">
<g filter="url(#filter0_d_2122_21)">
<path d="M14.199 13.7999C14.199 13.3222 14.3887 12.8641 14.7265 12.5263C15.0643 12.1886 15.5224 11.9988 16.0001 11.9988C16.4777 11.9988 16.9358 12.1886 17.2736 12.5263C17.6114 12.8641 17.8011 13.3222 17.8011 13.7999C17.8011 14.2776 17.6114 14.7357 17.2736 15.0734C16.9358 15.4112 16.4777 15.601 16.0001 15.601C15.5224 15.601 15.0643 15.4112 14.7265 15.0734C14.3887 14.7357 14.199 14.2776 14.199 13.7999Z" fill="#8CE853"/>
<path fill-rule="evenodd" clip-rule="evenodd" d="M8.19531 13.7999C8.19627 11.7307 9.019 9.74658 10.4826 8.28389C11.9462 6.8212 13.9308 5.99968 16 6C20.3094 6 23.8047 9.4929 23.8047 13.7999C23.8047 17.0106 22.1981 19.5549 20.4763 21.2744C19.7151 22.0388 18.8621 22.7059 17.9368 23.2604C17.5501 23.4885 17.1887 23.6686 16.8741 23.7911C16.5775 23.9087 16.2666 24 16 24C15.7334 24 15.4224 23.9087 15.1259 23.7911C14.7586 23.6416 14.4033 23.4642 14.0632 23.2604C13.1379 22.7059 12.2849 22.0388 11.5237 21.2744C9.80188 19.5549 8.19531 17.0106 8.19531 13.7999ZM16 10.7993C15.2039 10.7993 14.4403 11.1155 13.8774 11.6785C13.3145 12.2414 12.9982 13.005 12.9982 13.8011C12.9982 14.5972 13.3145 15.3607 13.8774 15.9237C14.4403 16.4866 15.2039 16.8029 16 16.8029C16.7961 16.8029 17.5596 16.4866 18.1226 15.9237C18.6855 15.3607 19.0018 14.5972 19.0018 13.8011C19.0018 13.005 18.6855 12.2414 18.1226 11.6785C17.5596 11.1155 16.7961 10.7993 16 10.7993Z" fill="#8CE853"/>
</g>
<defs>
<filter id="filter0_d_2122_21" x="0.195312" y="0" width="31.6094" height="34" filterUnits="userSpaceOnUse" color-interpolation-filters="sRGB">
<feFlood flood-opacity="0" result="BackgroundImageFix"/>
<feColorMatrix in="SourceAlpha" type="matrix" values="0 0 0 0 0 0 0 0 0 0 0 0 0 0 0 0 0 0 127 0" result="hardAlpha"/>
<feOffset dy="2"/>
<feGaussianBlur stdDeviation="4"/>
<feComposite in2="hardAlpha" operator="out"/>
<feColorMatrix type="matrix" values="0 0 0 0 0 0 0 0 0 0 0 0 0 0 0 0 0 0 0.25 0"/>
<feBlend mode="normal" in2="BackgroundImageFix" result="effect1_dropShadow_2122_21"/>
<feBlend mode="normal" in="SourceGraphic" in2="effect1_dropShadow_2122_21" result="shape"/>
</filter>
</defs>
</svg>
