<svg width="34" height="34" viewBox="0 0 34 34" fill="none" xmlns="http://www.w3.org/2000/svg">
<g filter="url(#filter0_d_2122_31)">
<path d="M25.6233 12.4287L14.4287 23.6225C14.3094 23.742 14.1676 23.8367 14.0116 23.9013C13.8556 23.9659 13.6884 23.9992 13.5196 23.9992C13.3507 23.9992 13.1835 23.9659 13.0275 23.9013C12.8715 23.8367 12.7298 23.742 12.6104 23.6225L8.37666 19.3896C8.25724 19.2702 8.16252 19.1285 8.09789 18.9725C8.03326 18.8165 8 18.6493 8 18.4804C8 18.3116 8.03326 18.1444 8.09789 17.9884C8.16252 17.8324 8.25724 17.6906 8.37666 17.5713L10.7205 15.2274C10.7504 15.1975 10.7858 15.1738 10.8248 15.1576C10.8638 15.1415 10.9057 15.1331 10.9479 15.1331C10.9901 15.1331 11.032 15.1415 11.071 15.1576C11.11 15.1738 11.1455 15.1975 11.1753 15.2274L13.974 18.026C14.0364 18.0885 14.1111 18.1374 14.1934 18.1697C14.2756 18.202 14.3636 18.217 14.4519 18.2137C14.5402 18.2105 14.6269 18.1891 14.7066 18.1509C14.7862 18.1126 14.8571 18.0584 14.9149 17.9915C15.0204 17.8641 15.0741 17.7017 15.0652 17.5365C15.0562 17.3713 14.9854 17.2156 14.8667 17.1004L12.0841 14.3178C12.024 14.2576 11.9902 14.1759 11.9902 14.0908C11.9902 14.0057 12.024 13.9241 12.0841 13.8638L13.2894 12.6585C13.3192 12.6287 13.3547 12.605 13.3937 12.5888C13.4327 12.5726 13.4745 12.5643 13.5168 12.5643C13.559 12.5643 13.6008 12.5726 13.6398 12.5888C13.6789 12.605 13.7143 12.6287 13.7441 12.6585L16.5428 15.4572C16.6053 15.5197 16.68 15.5686 16.7622 15.6009C16.8445 15.6331 16.9325 15.6481 17.0208 15.6449C17.1091 15.6417 17.1958 15.6202 17.2754 15.582C17.3551 15.5438 17.426 15.4895 17.4837 15.4226C17.5893 15.2953 17.643 15.1328 17.634 14.9677C17.6251 14.8025 17.5542 14.6468 17.4355 14.5315L14.6561 11.7466C14.596 11.6863 14.5623 11.6047 14.5623 11.5196C14.5623 11.4345 14.596 11.3528 14.6561 11.2926L15.8614 10.0873C15.9217 10.0272 16.0033 9.99343 16.0884 9.99343C16.1735 9.99343 16.2552 10.0272 16.3154 10.0873L19.1141 12.8859C19.1766 12.9485 19.2513 12.9975 19.3336 13.0299C19.4159 13.0623 19.5041 13.0773 19.5925 13.0741C19.6808 13.0708 19.7676 13.0494 19.8473 13.0111C19.9271 12.9728 19.998 12.9184 20.0558 12.8514C20.1612 12.7239 20.2148 12.5614 20.2057 12.3962C20.1966 12.2311 20.1256 12.0754 20.0068 11.9603L17.2274 9.1753C17.1673 9.11505 17.1335 9.03342 17.1335 8.94831C17.1335 8.8632 17.1673 8.78157 17.2274 8.72132L19.5713 6.37746C19.6906 6.25804 19.8324 6.16332 19.9884 6.09869C20.1444 6.03406 20.3116 6.0008 20.4804 6.0008C20.6493 6.0008 20.8165 6.03406 20.9725 6.09869C21.1285 6.16332 21.2702 6.25804 21.3896 6.37746L25.6233 10.6104C25.7428 10.7298 25.8375 10.8715 25.9021 11.0275C25.9667 11.1835 26 11.3507 26 11.5196C26 11.6884 25.9667 11.8556 25.9021 12.0116C25.8375 12.1676 25.7428 12.3094 25.6233 12.4287Z" fill="#53D6E8"/>
</g>
<defs>
<filter id="filter0_d_2122_31" x="0" y="0.000801086" width="34" height="33.9984" filterUnits="userSpaceOnUse" color-interpolation-filters="sRGB">
<feFlood flood-opacity="0" result="BackgroundImageFix"/>
<feColorMatrix in="SourceAlpha" type="matrix" values="0 0 0 0 0 0 0 0 0 0 0 0 0 0 0 0 0 0 127 0" result="hardAlpha"/>
<feOffset dy="2"/>
<feGaussianBlur stdDeviation="4"/>
<feComposite in2="hardAlpha" operator="out"/>
<feColorMatrix type="matrix" values="0 0 0 0 0 0 0 0 0 0 0 0 0 0 0 0 0 0 0.25 0"/>
<feBlend mode="normal" in2="BackgroundImageFix" result="effect1_dropShadow_2122_31"/>
<feBlend mode="normal" in="SourceGraphic" in2="effect1_dropShadow_2122_31" result="shape"/>
</filter>
</defs>
</svg>
